<svg width="387" height="369" viewBox="0 0 387 369" fill="none" xmlns="http://www.w3.org/2000/svg">
<path d="M189.796 355.53L208.328 367.927C208.328 367.927 211.348 370.056 213.681 366.925C216.015 363.795 216.015 359.788 223.702 359.788L227.271 359.537C227.271 359.537 229.88 357.909 232.488 357.909L229.742 354.403L238.253 347.891L237.429 346.138L243.881 340.502C243.881 340.502 249.647 342.005 252.804 333.615C252.804 333.615 253.49 329.733 256.373 329.482C256.373 329.482 258.02 330.609 258.707 333.49C258.707 333.49 261.315 337.247 261.589 330.484L262.413 327.354L264.335 325.099L266.394 322.971V321.092L271.747 317.586V315.206L275.042 311.7C275.042 311.7 279.435 312.952 278.611 309.07C277.787 305.188 278.713 307.067 278.713 307.067L280.255 306.613L284.648 311.324L287.531 311.199L297.552 309.571L295.355 307.568L294.806 304.562L298.65 302.308V300.054L310.318 296.798L311.142 298.05L334.89 295.295L343.812 290.036L352.872 285.527L365.638 293.417L364.952 295.671L372.228 301.181L379.091 293.667L371.129 287.656L373.6 282.772H375.934L377.856 275.008L379.915 273.631H382.66V272.629H386.092V271.752C386.092 271.752 387.327 271.001 386.092 270.876C384.857 270.751 383.621 270.25 383.621 270.25C383.621 270.25 383.072 270.124 383.072 269.373C383.072 268.622 382.248 267.244 382.248 267.244L382.797 265.867H384.445L385.543 267.996L386.641 267.745L386.092 265.867L385.955 264.614L384.17 263.863L376.757 253.845L381.15 248.836L358.363 235.061V234.184L360.148 232.431V230.803L363.168 228.424L367.423 226.044L365.501 224.291L365.227 220.785L368.247 217.779L372.365 216.151H377.169V215.275L366.325 197.993L366.874 186.222L370.718 180.587L370.58 177.08H369.07L365.638 179.585L360.834 180.211L357.539 179.835L356.99 178.458L355.892 167.688L369.619 166.812L370.168 165.935L370.718 156.793H368.796L366.874 144.02L312.926 153.162L303.413 152.035L302.356 151.909L304.278 150.782L306.337 148.153V138.635L303.592 135.004L301.944 134.127L293.296 124.735L293.983 123.357L295.355 108.33L292.61 105.325H290.551L285.197 112.713L283.825 113.464L282.04 114.091L280.255 115.343C280.255 115.343 278.883 115.844 278.745 116.47C278.608 117.096 276 118.474 276 118.474L274.765 120.477L273.804 121.479L237.152 128.492L233.995 128.617L228.092 111.837L224.66 112.087L223.974 108.08L216.699 98.0615L213.679 89.6712L215.189 88.4189L208.462 63.6238L218.621 60.7436L216.012 50.4749L216.836 48.847L215.326 46.5929L214.64 42.4604H212.443L211.208 34.0701L215.738 33.444L212.169 20.1698L209.149 19.2932L206.678 13.1571L206.815 9.27499L204.207 1.38564L197.481 3.38929L193.028 3.63974V7.14612L186.087 7.39658L182.381 8.89931L181.283 7.14612L180.322 6.1443H177.302C177.302 6.1443 175.243 8.02272 174.419 8.14794C173.595 8.27317 171.262 8.52363 171.262 8.52363L165.908 9.02454L163.575 7.5218V6.01907L162.202 4.76679L159.594 7.5218L158.358 14.1589L156.162 16.2877H153.279L146.827 16.1625L144.631 14.785V10.0264L141.886 6.26953L136.258 6.89567L134.473 9.14977H132.139L129.943 7.64703L117.451 12.5309L110.588 12.7814L106.061 0.634277H95.3533L93.4315 2.38747L85.4698 2.63792L81.9007 9.27499L78.6062 6.89567L77.7825 7.64703L80.8025 13.1571L79.7044 13.7832L76.4098 11.9048L73.9389 14.0336L70.919 11.7795L67.6244 12.4057L66.8008 15.0355L62.1336 18.4166L60.0745 19.0428L64.4672 28.4348C64.4672 28.4348 71.1935 36.6999 69.409 47.219C67.6244 57.7381 66.8008 55.8597 66.8008 55.8597C66.8008 55.8597 65.2908 56.8615 65.7026 60.3679L58.29 63.7491L54.7209 60.8688L53.8973 62.2463L52.25 63.1229L51.1518 61.7454L41.5428 63.9995C41.5428 63.9995 37.4247 66.6293 35.9147 74.3934L35.2283 75.0196L27.5411 74.3934L23.8348 72.8907V73.8925C23.8348 73.8925 28.6393 79.4025 26.7175 82.408L23.8348 92.8019C23.8348 92.8019 22.5993 94.6803 23.8348 96.4335L23.2857 119.976L27.8157 120.728L25.482 141.516L12.1667 161.051L38.2483 165.935C38.2483 165.935 40.4447 177.832 35.5029 185.971L27.2666 185.846C27.2666 185.846 21.3639 189.603 19.9912 190.104C18.6185 190.605 20.1284 194.737 20.1284 194.737L22.0503 196.365L21.6384 206.509L19.7166 207.385L17.6576 217.028C17.6576 217.028 2.81575 217.904 0.498602 227.672C0.498602 227.672 -0.325028 231.429 5.02857 240.946L5.16584 245.955L5.98947 245.83L14.5003 242.449L14.6376 253.344L42.641 253.845L44.0137 251.716L52.5246 251.215L54.3091 248.836L57.4663 249.086L58.29 249.963L55.6818 257.226L59.6627 258.478L62.8199 261.108L62.4081 269.248H64.4672L66.9381 272.504L67.7617 273.881L67.6244 276.636L72.978 278.64L73.2526 280.268L78.7435 283.774L84.3716 286.279L91.0979 289.159L94.667 289.535L94.9415 294.043L102.217 300.304L110.041 304.437L114.571 305.814L121.023 310.197L123.494 312.952L118.415 322.094V328.23L121.298 333.49L126.651 334.241L124.18 337.747L123.219 340.127L125.141 344.635L122.396 350.27L124.729 352.023L122.67 358.41L125.416 359.287L125.004 361.541L129.671 362.042L153.831 361.415L154.38 358.16L170.029 357.909V356.281L175.52 350.521L175.932 349.268L177.579 348.517L184.58 354.403L189.796 355.53Z" fill="#CC8E1E"/>
</svg>
