<svg width="24" height="24" viewBox="0 0 24 24" fill="none" xmlns="http://www.w3.org/2000/svg">
<g id="ri:instagram-fill">
<path id="Vector" d="M13.028 2C14.153 2.003 14.724 2.009 15.217 2.023L15.411 2.03C15.635 2.038 15.856 2.048 16.123 2.06C17.187 2.11 17.913 2.278 18.55 2.525C19.21 2.779 19.766 3.123 20.322 3.678C20.8305 4.1779 21.2239 4.78259 21.475 5.45C21.722 6.087 21.89 6.813 21.94 7.878C21.952 8.144 21.962 8.365 21.97 8.59L21.976 8.784C21.991 9.276 21.997 9.847 21.999 10.972L22 11.718V13.028C22.0024 13.7574 21.9948 14.4868 21.977 15.216L21.971 15.41C21.963 15.635 21.953 15.856 21.941 16.122C21.891 17.187 21.721 17.912 21.475 18.55C21.2246 19.2178 20.8311 19.8226 20.322 20.322C19.8219 20.8303 19.2173 21.2238 18.55 21.475C17.913 21.722 17.187 21.89 16.123 21.94C15.8857 21.9512 15.6483 21.9612 15.411 21.97L15.217 21.976C14.724 21.99 14.153 21.997 13.028 21.999L12.282 22H10.973C10.2432 22.0025 9.51349 21.9949 8.78397 21.977L8.58997 21.971C8.35258 21.962 8.11524 21.9517 7.87797 21.94C6.81397 21.89 6.08797 21.722 5.44997 21.475C4.78264 21.2244 4.17818 20.8308 3.67897 20.322C3.17001 19.8223 2.77619 19.2176 2.52497 18.55C2.27797 17.913 2.10997 17.187 2.05997 16.122C2.04883 15.8847 2.03883 15.6474 2.02997 15.41L2.02497 15.216C2.00654 14.4868 1.9982 13.7574 1.99997 13.028V10.972C1.99718 10.2426 2.00451 9.5132 2.02197 8.784L2.02897 8.59C2.03697 8.365 2.04697 8.144 2.05897 7.878C2.10897 6.813 2.27697 6.088 2.52397 5.45C2.77508 4.7819 3.16969 4.17702 3.67997 3.678C4.17906 3.16947 4.78311 2.77599 5.44997 2.525C6.08797 2.278 6.81297 2.11 7.87797 2.06C8.14397 2.048 8.36597 2.038 8.58997 2.03L8.78397 2.024C9.51316 2.00623 10.2426 1.99857 10.972 2.001L13.028 2ZM12 7C10.6739 7 9.40211 7.52678 8.46443 8.46447C7.52675 9.40215 6.99997 10.6739 6.99997 12C6.99997 13.3261 7.52675 14.5979 8.46443 15.5355C9.40211 16.4732 10.6739 17 12 17C13.326 17 14.5978 16.4732 15.5355 15.5355C16.4732 14.5979 17 13.3261 17 12C17 10.6739 16.4732 9.40215 15.5355 8.46447C14.5978 7.52678 13.326 7 12 7ZM12 9C12.3939 8.99993 12.7841 9.07747 13.1481 9.22817C13.5121 9.37887 13.8428 9.5998 14.1214 9.87833C14.4001 10.1569 14.6211 10.4875 14.7719 10.8515C14.9227 11.2154 15.0004 11.6055 15.0005 11.9995C15.0005 12.3935 14.923 12.7836 14.7723 13.1476C14.6216 13.5116 14.4007 13.8423 14.1221 14.121C13.8436 14.3996 13.5129 14.6206 13.149 14.7714C12.785 14.9223 12.3949 14.9999 12.001 15C11.2053 15 10.4423 14.6839 9.87965 14.1213C9.31704 13.5587 9.00097 12.7956 9.00097 12C9.00097 11.2044 9.31704 10.4413 9.87965 9.87868C10.4423 9.31607 11.2053 9 12.001 9M17.251 5.5C16.9194 5.5 16.6015 5.6317 16.3671 5.86612C16.1327 6.10054 16.001 6.41848 16.001 6.75C16.001 7.08152 16.1327 7.39946 16.3671 7.63388C16.6015 7.8683 16.9194 8 17.251 8C17.5825 8 17.9004 7.8683 18.1349 7.63388C18.3693 7.39946 18.501 7.08152 18.501 6.75C18.501 6.41848 18.3693 6.10054 18.1349 5.86612C17.9004 5.6317 17.5825 5.5 17.251 5.5Z" fill="#2B3F5B"/>
</g>
</svg>
