<svg width="16" height="18" viewBox="0 0 16 18" fill="none" xmlns="http://www.w3.org/2000/svg">
<path d="M8 8.65601C9.16032 8.65601 10.2731 8.20824 11.0936 7.41121C11.9141 6.61418 12.375 5.53318 12.375 4.40601C12.375 3.27884 11.9141 2.19783 11.0936 1.4008C10.2731 0.603772 9.16032 0.156006 8 0.156006C6.83968 0.156006 5.72688 0.603772 4.90641 1.4008C4.08594 2.19783 3.625 3.27884 3.625 4.40601C3.625 5.53318 4.08594 6.61418 4.90641 7.41121C5.72688 8.20824 6.83968 8.65601 8 8.65601ZM2.6875 9.87029C2.10734 9.87029 1.55094 10.0942 1.1407 10.4927C0.730468 10.8912 0.5 11.4317 0.5 11.9953V12.2989C0.5 13.7518 1.45187 14.9806 2.80312 15.816C4.16188 16.6563 6.00125 17.156 8 17.156C9.99875 17.156 11.8375 16.6563 13.1969 15.816C14.5481 14.9806 15.5 13.7518 15.5 12.2989V11.9953C15.5 11.4317 15.2695 10.8912 14.8593 10.4927C14.4491 10.0942 13.8927 9.87029 13.3125 9.87029H2.6875Z" fill="#CC8E1E"/>
</svg>
