<svg width="24" height="24" viewBox="0 0 24 24" fill="none" xmlns="http://www.w3.org/2000/svg">
<g id="mdi:youtube">
<path id="Vector" d="M9.99951 15L15.1895 12L9.99951 9V15ZM21.5595 7.17C21.6895 7.64 21.7795 8.27 21.8395 9.07C21.9095 9.87 21.9395 10.56 21.9395 11.16L21.9995 12C21.9995 14.19 21.8395 15.8 21.5595 16.83C21.3095 17.73 20.7295 18.31 19.8295 18.56C19.3595 18.69 18.4995 18.78 17.1795 18.84C15.8795 18.91 14.6895 18.94 13.5895 18.94L11.9995 19C7.80951 19 5.19951 18.84 4.16951 18.56C3.26951 18.31 2.68951 17.73 2.43951 16.83C2.30951 16.36 2.21951 15.73 2.15951 14.93C2.08951 14.13 2.05951 13.44 2.05951 12.84L1.99951 12C1.99951 9.81 2.15951 8.2 2.43951 7.17C2.68951 6.27 3.26951 5.69 4.16951 5.44C4.63951 5.31 5.49951 5.22 6.81951 5.16C8.11951 5.09 9.30951 5.06 10.4095 5.06L11.9995 5C16.1895 5 18.7995 5.16 19.8295 5.44C20.7295 5.69 21.3095 6.27 21.5595 7.17Z" fill="#2B3F5B"/>
</g>
</svg>
